PathFileType	4	(X/Y/Z)	C:/Users/beibeiliu/ov580/test_trc/User3\sequence.37_training_dense_right.trc
DataRate	CameraRate	NumFrames	NumMarkers	Units	OrigDataRate	OrigDataStartFrame	OrigNumFrames
120	120	20	19	mm	120	138	274
Frame#	Time	ThumbCMC			ThumbMCP			ThumbIP			ThumbTip			IndexMCP			IndexPIP			IndexTip			MiddleMCP			MiddlePIP			MiddleTip			RingMCP			RingPIP			RingTip			PinkyMCP			PinkyPIP			PinkyTip			BackHand1			BackHand2			BackHand3	
		X0	Y0	Z0	X1	Y1	Z1	X2	Y2	Z2	X3	Y3	Z3	X4	Y4	Z4	X5	Y5	Z5	X6	Y6	Z6	X7	Y7	Z7	X8	Y8	Z8	X9	Y9	Z9	X10	Y10	Z10	X11	Y11	Z11	X12	Y12	Z12	X13	Y13	Z13	X14	Y14	Z14	X15	Y15	Z15	X16	Y16	Z16	X17	Y17	Z17	X18	Y18	Z18	
137	1.14167	59.9062	1.2511	-13.1655	50.502	3.37831	-44.9905	40.2163	9.53863	-73.3618	42.119	5.87876	-94.6352	90.2618	41.381	-76.3389	85.3572	46.5139	-106.008	75.0267	30.0374	-130.126	109.803	36.266	-82.2714	103.971	39.2328	-117.363	90.9105	14.8716	-138.48	125.766	23.4924	-78.2352	122.867	24.6618	-109.882	108.372	4.57101	-130.393	132.504	3.36328	-70.7282	133.522	3.8918	-96.1897	122.218	-12.8009	-117.922	126.914	8.44856	-27.9385	122.346	2.82286	-0.0813549	93.3851	21.8451	-14.2374	
138	1.15	54.782	-8.82288	-25.8615	42.4258	-14.6974	-53.4182	30.8848	-16.9804	-81.9991	26.1511	-23.0704	-104.895	85.4415	17.2815	-95.4279	80.855	19.703	-125.929	80.1423	8.73194	-149.765	108.419	17.2402	-97.2434	109.225	17.5254	-130.321	110.459	3.54617	-156.254	123.501	3.24415	-86.1608	131.712	5.54308	-117.111	126.245	-5.73025	-144.314	135.335	-13.5804	-76.3363	142.116	-15.1885	-99.6673	144.155	-26.8319	-124.299	119.363	3.2909	-40.6238	119.999	-0.616712	-10.7019	88.192	10.7479	-26.808	
139	1.15833	54.9173	-22.2407	-31.298	42.6487	-34.0966	-58.547	26.6285	-43.5977	-82.899	23.7958	-53.9375	-101.043	77.179	-8.71573	-106.337	75.8048	-12.5135	-134.984	76.9874	-18.2518	-156.11	105.357	-5.59288	-105.368	110.673	-6.67459	-136.305	117.112	-13.6667	-163.487	120.861	-15.6476	-92.8023	132.343	-14.6732	-117.146	138.86	-23.0698	-147.534	139.697	-31.2913	-77.7129	147.172	-33.8368	-95.4939	158.477	-42.1541	-118.554	114.703	-7.79473	-48.1912	114.477	-3.22747	-17.362	84.7886	0.488786	-37.9009	
140	1.16667	53.7536	-32.1211	-36.261	35.7708	-48.0548	-56.0755	25.4841	-62.3029	-76.4901	19.9635	-74.9151	-96.3688	76.7509	-31.9494	-106.789	78.6411	-38.8952	-136.741	75.7761	-43.6335	-159.834	103.839	-27.5689	-106.597	108.626	-29.9857	-137.751	118.525	-34.274	-164.46	126.284	-33.7222	-95.3499	131.794	-35.1921	-119.59	144.615	-42.8145	-145.811	138.008	-46.2334	-73.5452	148.939	-50.4054	-91.4347	163.967	-57.2055	-114.779	117.007	-20.7914	-48.1339	112.532	-11.8731	-24.2135	79.6789	-10.5234	-45.0801	
141	1.175	50.1335	-38.9149	-34.2506	38.7755	-58.8223	-57.5552	23.4269	-73.3745	-78.145	20.3797	-88.5791	-91.9711	76.9927	-44.9783	-111.118	80.6473	-52.0256	-134.403	81.1605	-59.5119	-158.179	108.372	-43.3503	-107.135	109.143	-47.4602	-136.439	118.088	-52.2679	-163.108	123.506	-47.9947	-98.439	136.097	-52.5348	-119.717	142.715	-58.0895	-141.115	141.716	-57.7583	-71.2055	153.904	-64.9898	-91.5519	167.936	-70.7454	-105.432	113.775	-28.4291	-54.053	114.896	-16.6772	-24.0779	85.0463	-19.8978	-47.2324	
142	1.18333	52.1243	-46.415	-38.7709	36.8481	-64.1094	-55.3869	25.7532	-81.0197	-77.6548	21.58	-95.9468	-89.5598	81.7564	-52.5039	-108.941	79.4295	-59.7921	-133.669	80.4972	-66.7713	-157.635	109.661	-50.8871	-109.427	115.07	-57.1325	-133.114	121.884	-65.4119	-166.538	128.089	-56.2874	-98.3606	133.811	-60.4728	-116.27	147.078	-69.9712	-143.587	142.997	-64.2968	-72.7043	153.068	-70.5749	-88.6909	172.302	-76.6943	-103.94	114.803	-34.7606	-49.8036	117.796	-23.1684	-27.7793	82.8452	-24.4007	-49.3335	
143	1.19167	56.5151	-50.4973	-37.6874	40.0052	-67.849	-53.4932	27.1146	-85.7592	-77.4261	22.2836	-100.251	-93.8461	81.1088	-56.8995	-105.868	79.8535	-65.7954	-135.866	84.3995	-74.2394	-157.541	110.148	-55.0919	-106.468	116.033	-62.2125	-133.042	120.749	-72.4301	-165.289	126.97	-60.4542	-92.525	140.251	-67.8646	-119.104	146.673	-75.4392	-140.251	143.363	-68.1283	-69.2622	156.209	-76.0179	-85.6222	168.48	-80.9093	-106.208	116.61	-37.6397	-54.5148	114.047	-26.959	-21.7359	85.1636	-31.3883	-47.1545	
144	1.2	56.7812	-51.2754	-31.1691	40.3925	-70.7426	-53.1246	31.6285	-87.142	-75.259	23.6481	-101.888	-90.3194	82.6284	-60.0142	-108.406	84.4174	-69.7351	-134.324	80.7	-77.7374	-154.897	108.069	-58.4166	-105.035	115.93	-67.3275	-133.941	120.513	-77.1785	-161.429	129.387	-63.8561	-94.6124	138.828	-70.6692	-113.189	149.321	-80.7604	-139.996	146.756	-71.1185	-69.1933	158.479	-79.4622	-89.1609	168.429	-85.0021	-101.882	118.659	-42.9149	-52.0955	115.001	-28.5889	-20.2542	87.166	-31.1726	-47.3517	
145	1.20833	58.6253	-54.1477	-31.1515	44.77	-73.1001	-54.362	31.7232	-89.2229	-74.0564	26.7684	-103.608	-91.1044	86.7769	-63.0671	-106.565	84.0936	-70.9799	-129.87	82.4558	-81.6728	-153.734	111.734	-59.7214	-103.333	116.528	-68.8428	-131.008	123.223	-81.6811	-158.599	129.651	-65.3296	-92.6458	139.363	-73.3138	-115.627	149.697	-85.9133	-137.424	145.387	-72.9958	-68.4503	157.739	-81.261	-84.8327	174.464	-89.539	-99.3206	123.125	-43.447	-45.8708	117.941	-32.076	-19.5694	90.8848	-33.2401	-43.1837	
146	1.21667	60.4181	-54.3803	-33.442	48.0057	-71.9255	-50.7034	35.9752	-88.5534	-75.5801	31.2861	-103.595	-88.8759	84.6404	-61.5229	-107.277	82.5446	-70.7775	-127.27	86.8851	-84.7316	-153.325	113.122	-61.3647	-102.938	118.765	-71.7619	-130.834	124.548	-87.6907	-160.117	131.452	-67.5156	-89.5259	140.202	-77.1521	-114.513	148.028	-89.3924	-135.403	149.519	-74.3097	-70.4659	159.602	-83.6963	-87.1839	170.405	-93.797	-104.363	121.697	-41.764	-49.3414	120.673	-34.4148	-19.1859	90.5562	-33.9522	-39.6756	
147	1.225	60.4616	-52.452	-30.8363	48.8139	-70.6375	-49.3997	39.1624	-86.4843	-72.6593	35.744	-101.521	-89.5076	89.907	-60.4215	-101.96	87.6292	-70.6641	-127.454	87.1472	-85.4282	-151.051	118.083	-61.3921	-103.313	119.177	-73.141	-131.855	120.64	-90.7797	-158.493	131.308	-67.6824	-89.6497	140.29	-77.8123	-111.385	146.772	-93.1781	-133.783	145.619	-73.7874	-67.4411	159.067	-84.8766	-83.5326	171.509	-94.9379	-100.136	123.717	-41.2175	-44.3675	121.119	-34.0116	-19.0308	93.916	-32.8481	-36.9103	
148	1.23333	63.9992	-50.7717	-27.0523	48.8099	-68.9995	-49.484	39.3586	-84.4631	-74.2706	36.015	-99.2937	-88.6197	89.3862	-56.9534	-102.158	89.4191	-70.6771	-127.645	85.9575	-85.3463	-149.108	116.534	-58.9387	-101.683	120.892	-70.0688	-125.236	123.449	-92.378	-153.34	131.766	-65.1841	-90.1123	141.238	-75.9043	-109.897	143.069	-93.9102	-131.902	149.869	-72.6571	-69.1129	161.549	-86.1082	-84.7276	167.462	-100.63	-103.123	127.068	-41.6396	-43.0068	122.885	-31.4844	-14.1123	96.4679	-29.2666	-34.6237	
149	1.24167	62.929	-48.842	-22.5545	52.5799	-65.5226	-42.4237	40.3034	-82.0706	-70.4753	42.6706	-97.4218	-87.0061	93.4977	-54.2768	-96.4912	91.5461	-67.0551	-120.35	90.9478	-83.5536	-140.877	116.498	-54.972	-96.3567	119.441	-68.7	-123.272	122.934	-92.12	-149.076	131.616	-62.0851	-86.3903	139	-73.8087	-107.149	143.44	-95.9381	-131.147	149.704	-71.3826	-67.9521	159.083	-84.1869	-84.3332	163.828	-101.409	-101.538	127.31	-37.1607	-38.7061	127.067	-29.6803	-10.3441	94.0712	-27.7294	-33.1619	
150	1.25	66.9778	-45.376	-17.68	54.8941	-62.9051	-42.5702	45.2414	-77.6202	-64.6636	42.2111	-92.5412	-85.0965	91.5798	-51.1032	-92.5809	88.4311	-63.8176	-117.364	86.6518	-87.6015	-138.807	119.431	-53.905	-94.9939	121.266	-69.7052	-121.832	120.798	-94.9482	-144.197	134.316	-60.2192	-81.4209	139.881	-74.8362	-108.162	139.517	-93.8168	-124.49	148.379	-68.6617	-63.3315	157.619	-81.2935	-79.4039	162.201	-101.877	-97.355	129.568	-34.6758	-37.6158	128.066	-27.7623	-8.98218	98.4762	-25.6333	-29.5373	
151	1.25833	69.9301	-43.2693	-15.5009	55.5987	-60.0474	-36.0984	50.9581	-74.2382	-62.8008	48.2854	-89.767	-80.09	93.2227	-48.8513	-87.3829	94.2632	-63.2149	-111.695	91.0029	-87.0724	-132.851	121.774	-52.3245	-87.9404	121.187	-67.4355	-115.769	116.59	-92.6062	-137.321	140.219	-60.8807	-81.2934	142.558	-75.1848	-103.617	141.295	-95.7779	-117.792	155.524	-69.0159	-58.0499	159.531	-83.706	-78.2173	160.694	-105.421	-93.0452	132.588	-34.298	-31.801	135.313	-27.8371	0.577573	101.86	-24.4917	-23.5965	
152	1.26667	78.2545	-43.777	-8.82448	61.4138	-58.5967	-30.2641	50.6753	-73.9378	-60.1085	50.069	-87.1072	-76.3108	101.658	-49.2463	-82.4165	97.773	-63.3943	-108.744	95.1093	-85.7198	-126.033	126.852	-53.9595	-88.4977	122.961	-69.5671	-112.227	123.709	-96.5351	-131.631	142.814	-60.2432	-72.9974	143.334	-72.5389	-95.7428	142.362	-95.6578	-113.621	156.422	-69.7568	-54.1686	165.204	-87.8232	-73.7985	164.414	-103.893	-86.8249	142.604	-34.5247	-25.6506	135.17	-28.62	4.95997	105.494	-24.1333	-16.7128	
153	1.275	82.1927	-44.1278	-2.85596	66.6874	-59.6083	-27.8379	56.8152	-74.2418	-56.21	53.031	-89.2594	-71.353	103.667	-50.8305	-81.4482	103.112	-65.5353	-105.585	101.713	-87.3278	-121.836	129.449	-53.9477	-79.8459	131.014	-74.0705	-108.905	124.884	-100.597	-129.377	147.342	-62.3028	-72.5249	150.702	-78.0374	-93.4039	151.123	-100.712	-109.903	163.488	-72.3971	-50.7904	169.771	-89.5437	-68.8173	168.344	-107.931	-85.0946	146.785	-37.6255	-23.1574	144.55	-29.7875	4.3972	113.359	-26.373	-12.5123	
154	1.28333	89.366	-50.6041	-1.88336	73.4804	-65.6519	-26.5554	63.9238	-81.04	-51.1955	59.1929	-95.3114	-69.7701	113.437	-59.4306	-80.7571	108.894	-73.5437	-105.054	108.803	-95.3549	-120.221	138.546	-62.2829	-79.1884	138.85	-78.4398	-103.436	133.934	-106.821	-126.481	155.54	-68.5192	-65.7589	161.521	-83.7826	-87.3689	157.611	-104.61	-107.382	171.205	-79.1021	-45.1254	177.723	-93.1991	-62.0496	181.778	-110.872	-78.2076	149.514	-44.1881	-18.7801	151.525	-36.7042	9.59671	117.743	-30.3782	-13.3085	
155	1.29167	96.2696	-59.6771	-1.57141	79.562	-75.814	-26.1022	68.9089	-91.8711	-51.2096	68.2385	-106.698	-66.9672	122.048	-69.8879	-79.0739	120.274	-86.5449	-103.53	116.527	-102.088	-119.121	144.947	-72.5464	-80.6761	150.393	-90.9739	-104.497	146.857	-117.007	-125.909	165.49	-79.533	-62.5773	170.666	-93.9063	-87.5484	169.67	-116.33	-106.73	179.125	-86.5827	-41.9773	188.047	-103.574	-60.9713	191.586	-120.592	-77.4537	160.446	-52.9176	-21.4769	156.964	-44.9819	9.43306	125.624	-41.4945	-12.1976	
156	1.3	99.0291	-71.4356	-6.17964	86.4911	-89.3722	-24.138	76.05	-106.443	-47.593	70.1107	-120.548	-63.5683	127.338	-83.6503	-79.9637	127.664	-99.4897	-105.444	126.81	-116.462	-120.515	155.812	-87.0577	-78.964	155.42	-100.885	-101.539	161.444	-130.2	-124.511	170.43	-91.4071	-67.7611	176.378	-107.396	-88.8065	179.235	-127.998	-105.775	186.895	-98.5989	-41.1048	193.433	-112.229	-58.404	203.941	-131.362	-74.5085	163.93	-64.2769	-23.056	158.695	-53.6805	7.26265	131.796	-51.2004	-16.7249	
